<?xml version="1.0" standalone="no"?>
<!DOCTYPE svg PUBLIC "-//W3C//DTD SVG 20010904//EN"
 "http://www.w3.org/TR/2001/REC-SVG-20010904/DTD/svg10.dtd">
<svg version="1.0" xmlns="http://www.w3.org/2000/svg"
 width="500.000000pt" height="500.000000pt" viewBox="0 0 500.000000 500.000000"
 preserveAspectRatio="xMidYMid meet">

<g transform="translate(0.000000,500.000000) scale(0.100000,-0.100000)"
fill="#4056A1" stroke="none">
<path d="M2505 3580 c-16 -5 -57 -14 -90 -21 -33 -6 -55 -14 -48 -16 13 -5
243 36 243 43 0 7 -74 3 -105 -6z"/>
<path d="M2640 3580 c0 -6 23 -9 53 -9 44 1 48 2 22 9 -44 11 -75 11 -75 0z"/>
<path d="M2635 3535 c6 -3 57 -11 115 -20 57 -8 109 -20 114 -25 6 -6 27 -10
48 -10 26 0 44 -7 60 -24 13 -13 34 -26 48 -29 24 -6 24 -5 -5 19 -62 52 -115
71 -230 83 -108 11 -170 13 -150 6z"/>
<path d="M2500 3521 c-14 -4 -27 -17 -31 -31 -7 -28 -27 -28 -47 1 -17 25 -66
25 -89 0 -10 -10 -39 -21 -67 -25 -27 -3 -63 -15 -80 -27 l-31 -21 30 7 c17 4
54 11 84 16 30 4 61 15 71 24 22 20 30 19 30 -3 0 -32 -32 -49 -120 -66 -106
-21 -145 -33 -160 -51 -7 -9 12 -6 62 10 88 27 158 39 158 26 0 -11 -94 -48
-165 -64 -27 -6 -56 -17 -63 -24 -7 -7 -17 -13 -22 -13 -12 0 -40 -29 -40 -41
0 -6 10 -3 22 5 12 9 31 16 41 16 10 0 28 6 40 14 60 40 237 82 237 57 0 -15
-189 -81 -234 -81 -12 0 -32 -11 -44 -25 -13 -14 -41 -35 -62 -46 -22 -12 -41
-28 -44 -35 -3 -8 12 -3 34 11 47 30 65 31 79 8 9 -17 13 -16 64 10 30 15 67
27 84 27 17 0 38 8 48 20 26 29 3 26 -85 -10 -74 -31 -110 -37 -110 -21 0 15
42 41 65 41 11 0 44 11 73 25 30 14 67 25 83 25 16 0 29 5 29 10 0 6 10 10 23
10 12 0 29 5 37 10 13 9 13 12 -2 21 -10 5 -18 17 -18 24 0 8 -6 14 -12 13 -7
-2 -13 4 -13 12 0 24 54 25 76 1 12 -13 32 -21 52 -21 l32 0 -25 -20 c-40 -31
-14 -23 32 10 26 19 54 30 77 31 l36 1 -44 10 c-30 7 -47 6 -54 -1 -13 -13
-63 -15 -71 -3 -8 14 26 71 60 102 19 16 34 32 34 35 0 7 -28 5 -60 -4z"/>
<path d="M2585 3476 l-30 -14 35 -2 c32 -1 33 -2 17 -14 -26 -20 -10 -26 84
-35 81 -9 118 -21 62 -21 -17 0 -45 -3 -62 -6 l-32 -7 24 -12 c13 -7 52 -15
88 -19 107 -11 170 -26 251 -58 90 -35 104 -47 83 -74 -12 -16 -17 -17 -32 -6
-46 32 -159 68 -270 87 -74 12 -47 -10 35 -29 74 -18 215 -65 295 -100 22 -10
37 -12 37 -6 0 6 -14 16 -30 22 -17 5 -29 15 -27 22 6 18 46 19 73 2 13 -9 24
-12 24 -7 0 13 -128 88 -210 122 -39 17 -101 36 -137 44 -36 8 -67 16 -70 19
-9 9 68 18 113 13 27 -3 87 -26 146 -56 55 -28 102 -51 104 -51 2 0 -1 10 -8
21 -14 23 -87 59 -230 115 -100 39 -106 40 -104 18 2 -30 -22 -26 -39 5 -18
35 -35 41 -35 12 0 -11 -5 -23 -10 -26 -18 -11 -49 5 -52 28 -4 27 -49 33 -93
13z"/>
<path d="M2810 3227 c3 -3 40 -19 83 -36 95 -38 216 -98 303 -152 36 -22 68
-38 70 -36 12 12 -13 39 -58 61 -28 14 -55 32 -62 41 -6 8 -72 37 -146 64
-130 47 -201 68 -190 58z"/>
<path d="M2353 3200 c-24 -10 -43 -21 -43 -24 0 -2 -3 -11 -6 -20 -4 -10 -1
-16 9 -16 9 0 17 10 19 23 2 17 10 23 38 25 62 5 86 12 69 23 -21 13 -39 11
-86 -11z"/>
<path d="M2245 3169 c-16 -10 -25 -19 -19 -19 7 0 22 9 35 20 30 24 23 24 -16
-1z"/>
<path d="M2772 3169 c2 -6 42 -23 88 -38 103 -33 252 -107 339 -168 75 -52 95
-47 31 9 -55 48 -210 125 -348 172 -117 40 -115 40 -110 25z"/>
<path d="M2400 3153 c-8 -4 -21 -14 -28 -24 -16 -23 -101 -49 -158 -49 -37 0
-49 -6 -87 -42 -24 -24 -76 -61 -115 -83 -46 -25 -72 -46 -72 -57 0 -14 9 -11
47 18 91 70 364 191 409 182 29 -5 22 -30 -11 -40 -76 -22 -105 -33 -168 -64
-37 -19 -73 -34 -80 -34 -15 0 -191 -130 -185 -136 3 -2 42 21 88 51 107 72
252 141 337 162 81 19 79 18 63 38 -10 12 -10 18 0 30 19 23 36 18 60 -15 12
-16 26 -30 32 -30 5 0 -10 22 -34 50 -41 47 -62 56 -98 43z"/>
<path d="M2128 3119 c-22 -16 -30 -17 -51 -8 -22 10 -32 8 -70 -14 -25 -15
-47 -34 -51 -43 -3 -8 -3 -14 1 -12 59 28 83 44 83 55 0 15 26 18 35 4 5 -9
-40 -51 -115 -110 -14 -10 -22 -22 -19 -25 8 -8 144 83 199 133 46 41 37 57
-12 20z"/>
<path d="M3212 3124 c10 -10 20 -15 24 -12 3 4 -5 12 -18 18 -22 12 -22 12 -6
-6z"/>
<path d="M2741 3117 c-6 -6 -11 -15 -11 -19 0 -13 27 -9 39 6 15 18 -11 30
-28 13z"/>
<path d="M2825 3070 c34 -36 25 -38 -69 -15 -43 10 -65 11 -79 4 -10 -6 -37
-9 -58 -7 -21 2 -39 0 -39 -4 0 -4 -16 -12 -35 -19 -36 -13 -47 -29 -21 -29 8
0 18 5 22 11 10 16 197 5 254 -15 54 -19 74 -20 100 -4 16 10 28 8 70 -9 56
-24 65 -15 28 32 -25 32 -74 55 -118 55 -20 0 -30 5 -30 15 0 10 -10 15 -27
15 l-27 0 29 -30z m-90 -30 c8 -13 -35 -13 -55 0 -11 7 -7 10 17 10 17 0 35
-4 38 -10z"/>
<path d="M2325 2976 c-127 -52 -203 -94 -250 -137 -50 -47 -99 -113 -93 -130
2 -6 17 8 33 31 62 90 196 184 325 229 36 13 69 27 75 32 17 16 -8 9 -90 -25z"/>
<path d="M3064 2985 c27 -21 53 -20 36 0 -7 8 -22 15 -34 15 -21 -1 -21 -1 -2
-15z"/>
<path d="M2519 2973 c-1 -4 -1 -12 0 -16 1 -4 -36 -25 -81 -47 -132 -61 -202
-76 -168 -36 7 10 -17 4 -64 -16 -54 -22 -81 -39 -91 -57 -7 -14 -36 -48 -64
-76 -28 -27 -51 -57 -51 -65 0 -10 42 25 99 82 74 73 106 98 125 98 37 0 32
-11 -21 -52 -76 -58 -119 -106 -106 -119 8 -8 16 -5 29 11 58 68 97 100 120
100 36 0 29 -34 -8 -38 -14 -2 -29 -10 -32 -18 -10 -25 19 -15 77 26 76 54
116 70 179 70 47 -1 51 -2 35 -14 -9 -7 -35 -16 -55 -20 -50 -8 -151 -74 -222
-144 -59 -59 -123 -142 -116 -149 9 -9 46 18 46 33 0 8 36 52 80 98 89 92 176
142 269 153 28 3 51 9 51 13 0 11 -45 50 -58 50 -22 0 -12 20 14 26 19 5 32 0
56 -22 18 -16 29 -22 25 -13 -3 9 -1 22 4 30 8 11 12 10 27 -8 10 -13 42 -27
81 -37 35 -9 79 -25 96 -36 29 -18 34 -18 45 -5 14 17 40 20 40 5 0 -5 -12
-17 -26 -26 -24 -16 -29 -16 -74 0 -27 10 -61 16 -77 14 -26 -4 -24 -5 17 -17
52 -15 137 -56 164 -80 14 -12 20 -13 23 -3 10 28 45 8 112 -64 80 -85 96
-123 39 -93 -20 11 -21 9 -15 -20 8 -38 -2 -39 -33 -6 -29 31 -36 26 -16 -12
33 -61 32 -61 71 -23 19 19 35 44 35 56 0 24 -54 97 -113 153 -23 21 -50 36
-74 40 -32 5 -38 10 -38 31 0 19 6 26 25 28 37 4 100 -45 171 -135 34 -43 65
-79 70 -81 14 -6 10 11 -9 39 -73 109 -82 124 -71 128 6 2 35 -23 63 -55 30
-32 55 -53 59 -47 3 5 -34 48 -82 94 -102 96 -143 130 -186 151 -71 36 -75 26
-8 -19 83 -56 133 -99 133 -113 0 -15 -5 -13 -54 21 -64 42 -216 119 -238 119
-10 0 -18 -7 -18 -15 0 -9 -10 -15 -26 -15 -32 0 -64 17 -64 34 0 16 -22 26
-58 26 -15 0 -34 5 -42 10 -11 7 -11 10 -2 10 17 0 12 62 -5 68 -7 2 -14 0
-14 -5z m-19 -84 c-34 -24 -195 -99 -212 -99 -10 0 -18 6 -18 13 0 18 21 37
41 37 9 0 48 13 86 30 67 29 135 42 103 19z"/>
<path d="M2608 2973 c12 -2 32 -2 45 0 12 2 2 4 -23 4 -25 0 -35 -2 -22 -4z"/>
<path d="M2716 2970 c6 -6 43 -19 83 -30 90 -25 141 -51 190 -95 21 -19 43
-35 49 -35 5 0 44 -37 86 -81 42 -45 79 -79 82 -76 3 3 -26 41 -65 85 -91 103
-179 162 -328 218 -66 25 -115 32 -97 14z"/>
<path d="M2404 2946 c-16 -14 -24 -26 -18 -26 17 0 60 37 53 45 -4 3 -20 -5
-35 -19z"/>
<path d="M3176 2918 c33 -42 84 -82 84 -66 0 13 -18 29 -85 78 -20 14 -20 14
1 -12z"/>
<path d="M2684 2914 c22 -8 45 -13 50 -10 15 5 -40 26 -67 25 -15 0 -10 -5 17
-15z"/>
<path d="M3105 2894 c60 -55 136 -114 146 -114 23 0 3 22 -63 73 -93 70 -140
93 -83 41z"/>
<path d="M3110 2813 c63 -61 118 -109 123 -106 15 9 6 33 -13 33 -12 0 -17 5
-14 14 3 9 -22 35 -73 73 -135 103 -142 99 -23 -14z"/>
<path d="M2597 2794 c-8 -8 1 -24 14 -24 5 0 9 7 9 15 0 15 -12 20 -23 9z"/>
<path d="M2447 2725 c-85 -32 -257 -169 -257 -204 0 -5 -8 -12 -17 -14 -16 -4
-15 -5 1 -6 12 -1 47 28 91 74 93 97 175 138 286 143 53 3 86 -1 113 -12 41
-17 96 -21 96 -8 0 32 -247 53 -313 27z"/>
<path d="M2509 2680 c-46 -14 -153 -69 -184 -94 -50 -42 -6 -30 80 22 77 45
83 47 153 46 62 -1 84 -7 145 -37 74 -37 126 -80 109 -91 -6 -3 -50 15 -98 40
-83 44 -91 46 -150 41 -75 -6 -156 -41 -214 -93 -51 -45 -100 -119 -100 -148
0 -14 9 -5 29 29 36 62 118 140 175 165 57 26 141 35 193 21 89 -24 203 -190
248 -363 10 -38 20 -68 21 -68 2 0 4 32 4 70 0 49 -4 70 -12 70 -7 0 -23 24
-34 53 -12 28 -32 76 -45 104 -12 29 -20 56 -16 59 20 20 113 -112 104 -146
-6 -23 -3 -24 22 -8 18 11 17 13 -10 57 -16 25 -29 50 -29 57 0 6 -11 15 -25
18 -15 4 -25 14 -25 24 0 10 -18 36 -40 57 -22 21 -40 43 -40 47 0 15 32 8 61
-12 27 -20 149 -191 149 -211 0 -5 5 -9 10 -9 16 0 12 13 -25 70 -42 65 -45
96 -10 112 22 10 28 9 41 -11 12 -17 19 -20 28 -11 15 16 -54 76 -98 85 -17 4
-48 20 -68 36 -43 34 -46 34 -70 12 -22 -19 -61 -19 -148 1 -71 17 -92 18
-131 6z m344 -40 c9 -13 32 -24 58 -28 53 -9 61 -35 13 -40 -33 -3 -84 31
-105 69 -14 27 15 26 34 -1z"/>
<path d="M2136 2648 c-20 -26 -32 -32 -62 -33 -22 0 -39 -5 -42 -13 -3 -11 0
-12 16 -3 11 6 23 11 26 11 11 0 6 -36 -6 -48 -6 -6 -8 -15 -4 -19 5 -5 15 3
24 17 9 14 36 43 59 65 24 23 43 44 43 48 0 18 -31 4 -54 -25z"/>
<path d="M2438 2501 c-57 -37 -80 -59 -96 -92 l-21 -43 57 56 c73 72 111 90
197 96 61 4 74 1 98 -18 34 -27 61 -76 47 -85 -6 -3 -36 10 -68 29 -60 38 -99
44 -149 25 -37 -14 -93 -68 -93 -91 0 -10 -7 -21 -15 -25 -19 -7 -40 -46 -50
-90 -9 -45 10 -43 25 2 6 19 18 35 26 35 18 0 18 -24 -2 -61 -9 -18 -12 -38
-8 -47 4 -10 7 -26 6 -37 -1 -11 14 13 33 53 19 40 42 75 50 79 9 3 14 12 11
19 -10 25 12 24 43 -2 37 -31 61 -104 61 -188 0 -64 -43 -229 -66 -255 -7 -8
-32 -15 -55 -15 -41 -1 -42 -2 -46 -38 -5 -49 9 -49 76 -3 69 47 87 45 60 -8
-25 -48 -62 -77 -98 -77 -56 1 -111 16 -127 37 -14 17 -15 16 -9 -12 11 -49
22 -55 96 -55 91 0 112 10 155 75 41 62 54 68 55 28 0 -25 1 -26 9 -8 5 11 9
39 9 62 l1 41 -31 -11 c-27 -11 -32 -10 -45 7 -18 25 -18 36 0 36 21 0 28 26
33 140 6 115 -10 198 -49 252 -22 32 -46 35 -106 14 -47 -17 -61 -8 -32 19 11
10 20 26 20 37 0 27 102 26 130 -2 32 -32 60 -97 60 -139 0 -33 3 -38 19 -34
15 4 22 -5 36 -46 9 -28 21 -54 27 -57 18 -11 -1 63 -33 136 -56 124 -102 170
-182 184 -53 10 -36 26 26 26 57 -1 158 -36 165 -59 3 -10 -1 -12 -17 -8 -11
3 -21 3 -21 1 0 -3 13 -31 30 -64 59 -117 80 -199 80 -312 0 -113 -7 -151 -24
-145 -7 3 -10 35 -8 99 3 92 3 95 -22 111 -15 10 -30 34 -38 59 -12 42 -12 41
-19 -72 -4 -63 -6 -117 -3 -119 7 -7 24 50 24 80 0 16 5 29 11 29 18 0 4 -220
-19 -310 -13 -49 -16 -77 -10 -81 6 -4 7 -12 4 -18 -4 -6 -3 -11 3 -11 10 0
16 14 26 70 18 96 25 111 60 126 43 18 49 46 42 197 -4 83 -12 133 -31 192
-35 106 -44 183 -22 191 9 3 23 1 30 -5 20 -17 85 -184 93 -237 3 -24 12 -52
20 -61 13 -16 14 -14 8 22 -4 22 -20 82 -37 134 -34 101 -82 176 -162 249 -44
40 -48 42 -109 42 -60 0 -69 -3 -139 -49z"/>
<path d="M2253 2508 c-36 -41 -65 -89 -58 -96 3 -4 11 1 16 10 5 9 25 35 44
58 19 23 35 44 35 46 0 11 -19 2 -37 -18z"/>
<path d="M2296 2342 c-9 -15 -36 -184 -36 -232 0 -23 9 -45 26 -65 17 -20 23
-24 18 -10 -15 39 -16 121 -4 200 13 83 11 131 -4 107z"/>
<path d="M2755 2290 c45 -89 74 -248 75 -412 0 -5 7 -8 15 -8 45 0 23 -205
-31 -287 -23 -37 -37 -29 -30 17 6 39 -8 57 -20 25 -4 -8 -15 -15 -26 -15 -10
0 -43 -23 -73 -51 -50 -47 -82 -55 -50 -13 29 38 8 113 -23 82 -17 -17 -15
-29 6 -26 22 4 22 -22 -1 -36 -13 -8 -20 -8 -26 2 -6 10 -15 9 -44 -3 -20 -8
-50 -15 -66 -15 -16 0 -33 -5 -36 -10 -10 -17 42 -30 90 -23 39 5 49 2 70 -17
l25 -23 57 54 c56 52 58 53 62 29 2 -20 -10 -37 -58 -82 -33 -32 -75 -61 -93
-66 -43 -11 -127 3 -200 32 -54 22 -84 21 -55 -2 61 -49 173 -72 255 -52 61
14 153 88 165 132 7 26 10 28 42 22 31 -6 36 -3 45 22 6 15 24 42 40 61 38 43
43 113 14 196 -16 44 -19 133 -5 141 10 7 20 -15 22 -47 1 -12 5 3 9 33 6 37
5 61 -3 75 -11 19 -12 19 -15 -7 -2 -16 -10 -28 -17 -28 -15 0 -22 21 -49 150
-18 81 -68 200 -86 200 -6 0 1 -22 15 -50z"/>
<path d="M2471 2216 c-27 -42 -28 -96 -3 -96 13 0 14 2 3 9 -17 11 -9 50 19
82 17 21 21 22 30 9 13 -20 13 -161 0 -196 -9 -23 -14 -26 -42 -20 -38 8 -65
30 -71 60 -3 16 -5 14 -6 -8 0 -16 -8 -37 -16 -47 -20 -21 -11 -60 21 -90 34
-32 43 -14 9 21 -29 31 -29 64 2 58 24 -5 65 -67 57 -90 -8 -25 13 -23 30 5
41 63 59 236 32 302 -19 44 -39 44 -65 1z"/>
<path d="M2337 2193 c-10 -9 -9 -63 1 -63 12 0 33 50 27 61 -7 11 -19 12 -28
2z"/>
<path d="M2487 2120 c-3 -11 -15 -24 -27 -28 -21 -8 -21 -8 -3 -31 22 -27 36
-16 47 36 8 34 -8 56 -17 23z"/>
<path d="M2330 2078 c0 -15 5 -30 10 -33 13 -8 13 25 0 45 -8 12 -10 9 -10
-12z"/>
<path d="M2756 1778 c-21 -34 -40 -104 -32 -123 9 -24 36 -1 36 32 0 13 7 40
15 60 8 19 15 39 15 44 0 17 -20 9 -34 -13z"/>
<path d="M2810 1733 c0 -22 2 -25 10 -13 13 20 13 40 0 40 -5 0 -10 -12 -10
-27z"/>
<path d="M2285 1706 c10 -14 21 -26 25 -26 4 0 19 -11 34 -25 38 -35 109 -75
134 -75 30 0 52 10 52 24 0 7 18 30 40 51 22 21 40 43 40 48 0 13 -60 -25 -85
-55 -13 -16 -32 -28 -43 -28 -37 0 -106 31 -160 71 -45 35 -51 37 -37 15z"/>
<path d="M2856 1557 c-31 -53 -58 -126 -50 -138 9 -15 -14 -10 -48 11 -44 26
-50 25 -68 -12 -19 -40 -65 -67 -127 -76 -44 -7 -48 -9 -51 -37 -1 -22 4 -35
23 -48 22 -16 25 -16 25 -2 0 9 -5 26 -11 37 -15 28 2 44 29 27 18 -11 27 -10
61 9 22 12 52 22 68 22 88 0 84 -4 135 128 25 67 45 122 43 122 -2 0 -15 -19
-29 -43z m-96 -149 c0 -16 -31 -48 -47 -48 -19 0 -16 21 8 47 22 22 39 23 39
1z"/>
<path d="M2770 1500 c-13 -8 -13 -10 2 -10 9 0 20 5 23 10 8 13 -5 13 -25 0z"/>
<path d="M2886 1482 c-4 -18 -5 -36 -2 -39 11 -12 17 5 14 39 l-3 33 -9 -33z"/>
<path d="M2370 1490 c0 -23 158 -48 200 -32 l25 10 -26 10 c-19 8 -37 8 -61 0
-27 -8 -47 -7 -86 5 -29 8 -52 11 -52 7z"/>
<path d="M2834 1352 c-18 -33 -23 -37 -56 -35 -29 2 -38 -2 -43 -17 -4 -11
-32 -38 -63 -61 l-57 -41 43 7 c28 4 42 3 42 -4 0 -22 22 -10 75 40 33 31 61
68 71 95 21 56 15 64 -12 16z m-77 -110 c-26 -26 -37 -32 -37 -20 0 18 59 72
68 63 3 -3 -11 -22 -31 -43z"/>
<path d="M2311 1366 c2 -9 7 -17 12 -17 4 1 21 1 39 1 40 0 26 17 -21 26 -28
6 -32 4 -30 -10z"/>
<path d="M2432 1338 c3 -7 13 -15 24 -17 16 -3 17 -1 5 13 -16 19 -34 21 -29
4z"/>
<path d="M2865 1300 c-14 -27 -41 -65 -60 -84 -38 -38 -44 -56 -19 -56 9 0 14
-5 12 -11 -4 -12 -125 -89 -140 -89 -20 0 -4 22 36 50 70 47 66 56 -7 15 -67
-37 -102 -42 -102 -16 0 14 19 22 78 35 28 7 38 26 13 26 -8 0 -35 -9 -61 -20
-55 -23 -57 -46 -8 -71 30 -15 31 -17 17 -37 -14 -21 -14 -21 28 -6 63 21 179
87 192 107 9 14 7 21 -8 32 -18 13 -18 16 -4 32 28 32 76 143 62 143 -2 0 -15
-22 -29 -50z"/>
<path d="M2395 1273 c43 -37 74 -53 106 -53 34 0 10 20 -32 26 -47 8 -59 21
-28 32 19 7 14 10 -32 19 l-54 11 40 -35z"/>
<path d="M2649 1290 c-19 -10 -41 -25 -48 -34 -11 -13 -9 -14 19 -6 39 11 80
37 80 50 0 14 -10 12 -51 -10z"/>
<path d="M2385 1176 c-17 -12 -17 -13 7 -19 13 -4 51 -2 84 3 32 6 62 10 67
10 4 0 7 5 7 10 0 15 -143 12 -165 -4z"/>
<path d="M2315 1130 c-4 -6 -1 -18 6 -26 18 -21 3 -29 -23 -12 -23 15 -48 14
-48 -2 0 -6 52 -30 66 -30 2 0 12 10 23 21 18 20 23 20 51 9 34 -14 39 -26 13
-33 -12 -3 -8 -5 9 -6 43 -2 75 -18 81 -40 3 -12 10 -21 16 -21 18 0 51 43 50
64 0 21 0 21 -9 0 -14 -34 -35 -35 -66 -2 -46 48 -156 99 -169 78z"/>
<path d="M2466 1121 c-9 -14 22 -34 41 -26 17 6 17 7 -1 21 -23 16 -33 18 -40
5z"/>
<path d="M2858 1100 c-38 -29 -205 -106 -249 -114 -41 -7 -86 -35 -57 -36 9 0
20 5 23 10 3 6 20 10 36 10 17 0 68 16 115 35 46 19 91 35 99 35 23 0 68 44
64 64 -4 17 -6 16 -31 -4z"/>
<path d="M2831 1010 c-24 -16 -71 -39 -105 -50 -69 -23 -93 -36 -84 -45 4 -4
44 9 90 28 46 20 100 42 121 51 20 8 37 22 37 30 0 21 -7 19 -59 -14z"/>
<path d="M2435 1001 c-7 -12 12 -24 25 -16 11 7 4 25 -10 25 -5 0 -11 -4 -15
-9z"/>
<path d="M2395 940 c3 -5 15 -10 25 -10 10 0 22 5 25 10 4 6 -7 10 -25 10 -18
0 -29 -4 -25 -10z"/>
<path d="M2740 910 c0 -5 6 -10 14 -10 8 0 18 5 21 10 3 6 -3 10 -14 10 -12 0
-21 -4 -21 -10z"/>
<path d="M2455 890 c3 -5 11 -10 16 -10 6 0 7 5 4 10 -3 6 -11 10 -16 10 -6 0
-7 -4 -4 -10z"/>
</g>
</svg>
